<?xml version="1.0" standalone="no"?>
<!DOCTYPE svg PUBLIC "-//W3C//DTD SVG 20010904//EN"
 "http://www.w3.org/TR/2001/REC-SVG-20010904/DTD/svg10.dtd">
<svg version="1.0" xmlns="http://www.w3.org/2000/svg"
 width="1024.000000pt" height="1024.000000pt" viewBox="0 0 1024.000000 1024.000000"
 preserveAspectRatio="xMidYMid meet">

<g transform="translate(0.000000,1024.000000) scale(0.100000,-0.100000)"
fill="#000000" stroke="none">
<path d="M2586 9169 c-252 -23 -507 -94 -721 -201 -462 -231 -748 -661 -841
-1263 -18 -114 -19 -226 -19 -2390 0 -2537 -5 -2344 70 -2641 87 -341 268
-668 487 -881 242 -235 601 -391 1023 -445 148 -19 4871 -19 5030 0 487 58
885 240 1150 524 216 232 376 573 442 938 l28 155 0 2355 0 2355 -24 125 c-38
200 -85 339 -177 525 -230 466 -643 735 -1275 832 -106 16 -292 17 -2594 19
-1381 1 -2524 -2 -2579 -7z m4357 -264 c43 -30 50 -51 10 -29 -45 23 -95 17
-261 -30 -87 -24 -166 -46 -176 -48 -20 -3 -8 -14 353 -336 64 -56 117 -106
118 -110 2 -4 -78 -31 -177 -60 -153 -44 -183 -51 -198 -40 -10 7 -121 103
-246 213 -125 110 -234 204 -242 208 -8 5 -43 0 -82 -11 -392 -114 -493 -142
-507 -142 -9 0 -15 -4 -13 -9 3 -8 296 -271 441 -396 40 -34 53 -51 44 -56 -7
-4 -120 -39 -251 -78 -215 -64 -241 -70 -260 -57 -22 15 -102 84 -321 275 -71
62 -144 124 -160 137 l-31 23 -79 -25 c-44 -13 -177 -52 -295 -85 -118 -34
-219 -66 -225 -71 -6 -5 9 -24 40 -51 47 -40 415 -366 443 -392 12 -11 -101
-49 -461 -151 l-48 -13 -117 102 c-317 277 -403 348 -423 352 -31 6 -32 10 -6
23 26 13 498 153 530 157 30 4 563 162 607 180 19 7 145 45 280 84 266 76 777
225 1040 303 91 27 179 50 195 53 34 4 347 93 354 100 15 15 90 3 124 -20z
m-3796 -131 c8 -20 -8 -36 -26 -25 -15 10 -8 41 9 41 6 0 13 -7 17 -16z m-509
-254 c27 -55 69 -83 185 -125 l87 -31 -57 -18 c-73 -23 -163 -68 -185 -93 -22
-24 -62 -115 -84 -189 l-17 -59 -27 80 c-36 107 -64 159 -98 183 -34 25 -194
92 -219 92 -10 1 14 11 52 24 39 12 96 35 129 51 55 26 60 32 91 99 18 39 41
98 50 130 l17 60 27 -80 c15 -43 37 -99 49 -124z m4946 185 c3 -9 -1 -18 -10
-22 -19 -7 -39 11 -30 26 10 16 33 13 40 -4z m-4120 -362 c15 -12 44 -28 66
-34 47 -14 51 -24 13 -32 -48 -11 -94 -46 -109 -85 -8 -20 -18 -46 -23 -56 -6
-17 -11 -11 -26 32 -23 64 -37 77 -106 101 l-54 19 31 11 c84 31 98 44 123
108 l24 62 18 -52 c10 -28 29 -62 43 -74z m4443 -50 c24 -60 28 -64 87 -92 33
-16 70 -32 80 -35 14 -5 -1 -16 -63 -46 -75 -36 -83 -43 -103 -87 -11 -27 -26
-65 -32 -87 l-12 -38 -28 75 c-15 41 -37 84 -49 95 -12 11 -54 34 -94 49 l-72
29 55 19 c30 10 67 26 84 36 32 20 71 88 90 159 l13 45 9 -30 c5 -16 21 -58
35 -92z m544 1 c17 -21 0 -49 -31 -49 -31 0 -48 28 -31 49 8 9 21 16 31 16 10
0 23 -7 31 -16z m-6498 -261 c21 -40 49 -59 128 -88 l60 -21 -43 -13 c-65 -20
-116 -48 -134 -76 -8 -13 -26 -53 -39 -90 -21 -61 -23 -64 -30 -38 -3 15 -18
54 -32 86 -22 49 -34 62 -72 82 -25 12 -65 29 -89 36 l-44 13 64 21 c100 34
114 47 150 141 l32 85 16 -53 c9 -29 24 -68 33 -85z m1807 -13 c-8 -5 -22 -9
-30 -9 -10 0 -8 3 5 9 27 12 43 12 25 0z m-93 -27 c-9 -2 -15 -8 -12 -13 3 -4
-5 -6 -17 -3 -17 3 -19 2 -10 -5 11 -7 7 -11 -15 -17 -34 -9 -144 -15 -123 -7
37 14 166 50 180 50 10 0 9 -2 -3 -5z m-246 -70 c-11 -5 -11 -7 0 -15 9 -5 4
-6 -16 -2 -23 4 -27 3 -15 -5 12 -9 8 -10 -15 -5 -23 4 -27 3 -15 -5 11 -8 7
-9 -19 -4 -23 4 -32 3 -28 -5 5 -6 -1 -8 -15 -4 -18 5 -8 11 47 28 62 20 113
31 76 17z m3981 -10 c37 -33 12 -93 -38 -93 -27 0 -64 32 -64 55 0 22 37 55
62 55 12 0 30 -7 40 -17z m1241 -7 c8 -20 -20 -43 -35 -28 -14 14 -3 42 16 42
7 0 16 -6 19 -14z m-5363 -36 c8 -5 11 -10 5 -10 -5 0 -17 5 -25 10 -8 5 -10
10 -5 10 6 0 17 -5 25 -10z m-23 -14 c3 -3 -1 -6 -10 -6 -9 0 -17 -4 -17 -8 0
-4 66 -66 147 -137 196 -173 354 -317 350 -321 -1 -2 -90 -28 -196 -58 -158
-45 -197 -53 -210 -43 -9 6 -104 91 -211 187 -107 96 -219 196 -248 222 -29
26 -53 50 -53 54 0 5 84 33 188 64 171 52 242 64 260 46z m4131 -406 c47 -231
48 -235 28 -241 -27 -7 -26 -11 -81 242 -25 118 -50 218 -55 223 -13 13 -169
-8 -185 -25 -7 -8 -73 -131 -146 -274 -73 -143 -134 -262 -135 -264 -5 -6
-467 -81 -472 -77 -2 2 60 127 137 277 78 150 141 273 141 274 0 1 -48 -7
-107 -17 -60 -11 -195 -34 -302 -51 l-193 -32 -139 -270 c-76 -148 -140 -274
-142 -279 -2 -7 -445 -85 -485 -86 -12 0 234 498 259 525 5 5 9 16 9 25 0 37
34 48 270 85 332 52 796 129 1060 176 124 21 248 41 275 44 28 3 84 11 125 18
l75 13 7 -25 c4 -15 29 -132 56 -261z m-4623 270 c3 -6 -1 -7 -9 -4 -18 7 -21
14 -7 14 6 0 13 -4 16 -10z m-29 -7 c12 -4 -8 -14 -61 -30 -59 -17 -82 -20
-89 -12 -8 9 -6 10 7 6 9 -4 17 -2 17 3 0 5 21 15 48 23 59 19 57 18 78 10z
m5747 -335 c30 -65 41 -80 83 -104 58 -34 189 -87 262 -105 l52 -13 -92 -33
c-119 -43 -231 -98 -262 -129 -25 -26 -94 -186 -121 -284 -9 -30 -18 -62 -21
-69 -3 -8 -25 44 -49 116 -60 181 -84 224 -142 261 -53 34 -147 75 -258 112
-44 15 -62 25 -50 28 50 9 216 68 277 98 64 32 70 38 102 102 37 75 106 270
106 305 1 12 18 -30 39 -94 22 -64 55 -150 74 -191z m-5907 281 c4 -8 0 -9
-15 -4 -13 4 -21 2 -21 -5 0 -6 -4 -8 -10 -5 -5 3 -18 1 -27 -4 -14 -8 -15
-11 -3 -11 8 -1 -2 -8 -24 -16 -21 -7 -50 -11 -65 -8 -21 5 -23 3 -11 -6 12
-9 7 -10 -20 -5 -27 5 -32 4 -20 -5 12 -9 9 -10 -13 -5 -17 3 -26 2 -23 -4 5
-8 -111 -41 -145 -41 -7 0 -21 -7 -31 -17 -10 -9 -18 -12 -18 -6 0 27 35 44
150 72 69 16 157 41 195 55 81 28 91 30 101 15z m5169 -24 c0 -30 -39 -27 -43
3 -3 20 0 23 20 20 15 -2 23 -10 23 -23z m-5188 -235 c58 -35 64 -121 11 -165
-44 -37 -91 -34 -134 9 -47 47 -47 95 0 142 40 40 75 44 123 14z m2847 1 c3
-4 -6 -6 -19 -3 -14 2 -25 6 -25 8 0 8 39 4 44 -5z m-39 -10 c27 -11 -132 -34
-172 -26 -23 5 -25 4 -13 -5 13 -10 12 -11 -3 -6 -10 3 -31 6 -45 7 -19 1 -13
4 18 10 25 5 55 8 67 6 12 -2 20 -1 17 4 -2 4 13 10 33 12 63 6 77 6 98 -2z
m-407 -49 c-4 -10 -300 -586 -303 -590 -4 -5 -460 -80 -463 -77 -3 2 251 514
293 592 0 1 104 20 230 41 127 22 234 40 238 41 5 0 7 -3 5 -7z m65 1 c-7 -2
-19 -2 -25 0 -7 3 -2 5 12 5 14 0 19 -2 13 -5z m-10 -20 c-7 -2 -19 -2 -25 0
-7 3 -2 5 12 5 14 0 19 -2 13 -5z m-3391 -150 c22 -20 23 -70 1 -95 -21 -24
-68 -23 -93 2 -26 26 -25 51 1 84 24 30 63 34 91 9z m2269 -32 c-11 -16 -68
-122 -125 -237 l-104 -207 -10 39 c-6 21 -16 67 -23 102 -13 69 -17 73 -149
163 -35 24 -68 47 -73 50 -6 4 -5 14 1 25 9 16 49 26 224 55 117 20 228 37
246 38 l33 1 -20 -29z m3503 -432 c59 -310 62 -334 46 -309 -9 13 -10 13 -11
0 -1 -27 -18 39 -74 305 -30 143 -57 270 -60 282 -4 15 0 23 12 26 10 2 21 1
25 -2 3 -3 32 -139 62 -302z m-4049 187 c37 -16 65 -60 65 -102 0 -38 -59 -94
-100 -94 -62 0 -110 47 -110 106 0 36 16 62 53 84 38 24 47 24 92 6z m-626
-100 c29 -16 51 -53 51 -89 0 -37 -36 -84 -73 -96 -65 -22 -137 31 -137 99 0
28 26 77 47 89 26 15 80 13 112 -3z m-798 -95 c20 -16 22 -23 14 -47 -11 -32
-46 -44 -71 -24 -20 17 -18 67 4 79 23 14 26 14 53 -8z m6977 -52 c3 -17 -23
-33 -39 -23 -5 3 -9 14 -9 25 0 15 6 20 22 17 13 -2 24 -10 26 -19z m-984
-157 c13 -25 34 -41 82 -63 35 -16 72 -29 81 -29 10 0 -8 -11 -40 -24 -31 -13
-68 -31 -82 -40 -28 -18 -68 -92 -80 -146 -7 -30 -9 -32 -16 -15 -4 11 -17 46
-30 78 -25 66 -56 91 -149 122 -53 18 -54 19 -25 25 17 4 54 17 84 30 49 22
56 29 81 84 15 34 31 75 35 91 7 29 7 29 24 -25 10 -30 25 -70 35 -88z m-457
-134 c-3 -8 -6 -5 -6 6 -1 11 2 17 5 13 3 -3 4 -12 1 -19z m-2741 2 c30 -10
558 -193 967 -335 146 -51 248 -92 263 -106 32 -30 32 -84 1 -121 -19 -23
-375 -306 -848 -673 -178 -139 -199 -147 -248 -97 -24 23 -31 49 -59 192 -42
210 -144 713 -183 894 -34 158 -32 194 13 231 32 27 50 30 94 15z m3884 -55
c18 -22 8 -50 -19 -50 -32 0 -49 28 -32 49 17 20 35 20 51 1z m-6972 -33 c3
-16 -2 -22 -17 -22 -26 0 -36 17 -20 36 16 19 33 13 37 -14z m6740 -325 c15
-12 16 -69 0 -85 -17 -17 -64 -15 -82 4 -40 39 2 113 54 96 8 -3 21 -9 28 -15z
m-6316 -87 c43 -53 26 -126 -36 -152 -40 -17 -46 -17 -78 -1 -62 30 -79 113
-32 160 22 22 32 25 77 20 37 -3 56 -11 69 -27z m5150 -92 c56 -31 94 -82 111
-147 l14 -53 44 -4 c56 -5 104 -21 119 -40 20 -23 28 -17 51 36 12 28 34 61
50 74 43 37 132 66 199 66 114 0 234 -89 262 -196 11 -40 14 -43 37 -36 79 22
181 -17 218 -83 26 -46 29 -111 9 -170 -13 -37 -13 -40 5 -47 12 -5 35 1 62
15 62 32 159 35 225 7 90 -39 162 -144 162 -236 0 -19 6 -22 53 -26 62 -5 109
-34 133 -81 23 -44 21 -119 -5 -162 -12 -20 -19 -40 -16 -45 3 -4 28 -11 56
-15 31 -4 53 -13 56 -22 9 -24 -15 -185 -29 -199 -14 -14 -206 -67 -723 -199
-181 -47 -376 -97 -432 -112 l-101 -27 -4 -53 c-2 -29 -1 -53 2 -53 3 0 49 11
103 24 53 13 97 20 98 17 5 -28 -55 -530 -82 -689 -10 -63 -19 -118 -19 -124
0 -5 -3 -7 -8 -4 -4 2 -33 -13 -64 -35 -32 -21 -61 -39 -66 -39 -4 0 -18 -9
-30 -20 -12 -11 -25 -19 -29 -18 -4 2 -13 -31 -21 -72 -7 -41 -19 -78 -25 -82
-16 -10 14 -20 50 -16 24 3 39 20 103 123 147 234 199 305 224 305 27 0 35
-15 137 -280 39 -102 76 -190 83 -197 11 -11 105 -40 356 -109 69 -19 129 -39
134 -44 18 -18 -7 -57 -67 -102 -80 -61 -254 -195 -296 -229 l-33 -26 12 -242
c7 -132 10 -248 6 -256 -9 -23 -39 -18 -87 16 -45 32 -75 58 -51 45 7 -4 12
-1 12 8 0 8 -3 16 -7 19 -5 2 -3 2 4 1 16 -4 26 13 13 19 -6 3 -5 4 2 3 7 -2
13 -10 12 -18 -1 -8 5 -15 13 -15 7 0 12 3 11 6 -2 3 -18 33 -36 66 -17 33
-62 116 -98 185 -36 69 -78 145 -93 170 -16 25 -43 74 -62 109 l-33 64 -52
-58 c-46 -51 -59 -85 -33 -85 5 0 8 -3 7 -8 -5 -13 24 -72 35 -72 6 0 8 -3 4
-6 -3 -4 1 -13 9 -21 16 -16 18 -144 2 -154 -5 -3 9 -18 32 -33 22 -15 46 -24
52 -20 7 4 8 3 4 -4 -3 -6 2 -16 13 -21 11 -6 21 -8 24 -3 2 4 2 1 0 -7 -2 -8
2 -11 12 -7 9 3 13 2 10 -3 -3 -5 -1 -12 5 -16 5 -3 10 -1 10 5 0 7 7 5 16 -4
8 -9 22 -16 29 -16 9 0 12 -6 8 -17 -5 -12 -3 -14 7 -8 8 5 11 4 6 -3 -3 -6 2
-16 13 -21 14 -8 21 -8 24 2 3 6 4 2 4 -10 -1 -20 -5 -18 -57 19 -30 22 -95
67 -144 100 l-89 61 -51 -18 c-28 -10 -127 -47 -221 -82 -219 -84 -220 -84
-241 -68 -20 14 -25 -8 70 305 31 102 55 190 54 197 -3 15 -300 374 -305 369
-2 -2 -10 -147 -18 -322 -8 -175 -15 -320 -15 -321 0 -3 -250 63 -254 68 -2 2
-10 130 -17 284 -13 316 -7 1197 11 1509 6 103 9 191 6 194 -7 6 -389 82 -393
78 -2 -2 -4 -286 -4 -632 0 -363 -4 -621 -9 -609 -29 68 19 -357 89 -775 5
-30 8 -56 6 -58 -2 -2 -10 18 -18 45 -21 65 -49 233 -107 653 -28 195 -55 373
-61 394 -15 56 -107 145 -191 185 -194 92 -489 113 -792 55 -87 -16 -89 -17
-62 -31 22 -11 27 -20 23 -38 -3 -16 1 -25 12 -28 10 -3 6 -5 -8 -6 -24 -1
-24 -2 -18 -74 6 -64 4 -77 -15 -107 -24 -38 -32 -63 -17 -54 5 3 9 3 9 0 0
-3 7 -54 15 -113 21 -155 37 -352 30 -363 -3 -6 -2 -10 3 -10 5 0 14 -26 18
-57 9 -57 9 -57 44 -58 27 0 35 -4 34 -17 -1 -14 5 -16 30 -12 17 2 7 -3 -22
-12 l-53 -17 7 -56 c3 -31 10 -60 14 -64 4 -5 35 -1 70 8 34 9 65 14 68 11 3
-3 -2 -6 -11 -6 -20 0 -22 -19 -4 -51 8 -17 20 -23 37 -22 14 2 -38 -19 -115
-46 -77 -27 -230 -85 -340 -131 -218 -90 -240 -98 -210 -79 11 7 25 18 31 24
14 13 8 76 -7 86 -6 3 10 14 35 24 l47 18 -6 61 c-9 89 -9 88 -49 71 -46 -20
-50 -19 -26 5 11 11 17 26 14 34 -4 10 10 23 45 41 50 25 51 26 46 63 -3 20
-12 102 -21 182 -8 80 -22 189 -30 242 -8 54 -14 114 -14 133 0 40 -3 41 -76
19 -53 -15 -54 -15 -79 10 l-24 25 52 17 c88 28 85 25 75 95 -4 35 -10 64 -13
67 -2 2 -34 -6 -71 -19 l-66 -24 5 -70 6 -70 -19 65 c-29 99 -34 139 -20 156
10 12 10 14 -1 10 -8 -3 -52 -17 -98 -31 -47 -14 -139 -46 -205 -70 -274 -99
-532 -169 -731 -199 -177 -26 -197 -28 -362 -28 -182 1 -229 5 -386 33 -128
24 -380 109 -365 124 2 2 41 -12 86 -31 52 -22 135 -46 225 -64 78 -15 142
-27 143 -27 0 1 -4 22 -9 47 -8 37 -11 41 -18 25 l-8 -20 0 20 c-1 14 -4 16
-9 7 -7 -10 -18 -10 -55 0 -25 6 -44 14 -42 17 2 3 -16 6 -38 6 -37 -1 -49 6
-98 51 -102 92 -252 124 -369 80 -61 -23 -109 -29 -126 -15 -11 9 -14 8 -14
-2 0 -10 -3 -10 -8 -3 -4 6 -22 19 -39 28 -18 9 -34 17 -36 19 -2 1 -23 -15
-45 -35 -148 -134 -356 -126 -493 19 -57 60 -100 145 -107 212 -4 41 -3 44 10
31 9 -8 23 -40 32 -70 50 -159 179 -260 332 -260 171 0 296 117 325 303 11 73
-5 167 -42 239 -32 62 -112 141 -176 174 -51 25 -69 29 -143 29 -94 0 -147
-18 -223 -77 -23 -17 -37 -26 -30 -19 9 11 7 18 -8 34 -11 12 -18 26 -16 32 3
5 -3 24 -11 40 -14 29 -14 29 3 15 17 -14 17 -14 7 6 -6 12 -9 24 -7 28 3 3 2
4 -2 1 -10 -7 -33 15 -33 33 0 8 -8 21 -17 29 -10 8 -13 12 -6 9 6 -4 14 -2
18 4 6 10 -9 15 -30 10 -5 -1 -7 2 -2 6 4 4 -1 16 -10 27 -11 12 -12 17 -4 12
10 -5 12 -4 7 3 -4 7 -14 12 -22 12 -8 0 -13 4 -10 9 3 4 -4 17 -16 27 -12 11
-18 13 -13 5 5 -10 4 -12 -3 -7 -19 11 -14 42 22 150 162 485 505 815 974 938
110 29 128 31 312 32 212 1 266 -7 435 -64 90 -30 106 -31 53 -4 -111 58 -305
95 -488 95 -218 0 -395 -38 -575 -125 -161 -78 -256 -146 -386 -276 -214 -213
-340 -448 -412 -770 -17 -77 -21 -129 -21 -275 -1 -194 7 -261 55 -443 71
-272 206 -502 418 -712 165 -164 342 -272 580 -356 61 -22 81 -32 56 -28 -121
17 -355 128 -498 235 -45 34 -125 105 -177 158 -236 240 -375 522 -441 901
-13 78 -17 90 -14 45 2 -37 1 -50 -4 -35 -5 16 -13 24 -24 22 -10 -2 -21 6
-27 20 -8 20 -9 18 -11 -17 -4 -88 -19 69 -20 202 -2 767 549 1441 1280 1567
103 17 383 22 461 6 28 -5 67 -4 105 3 99 18 405 14 515 -7 433 -80 804 -351
1039 -759 131 -227 196 -451 216 -744 7 -97 -2 -293 -13 -264 -4 11 -6 11 -14
0 -6 -9 -7 8 -3 49 3 35 3 94 -1 133 -5 57 -9 67 -20 58 -8 -6 -30 -9 -49 -7
-32 4 -35 2 -36 -22 -1 -14 -8 28 -15 92 -68 564 -389 1032 -862 1256 -74 35
-78 39 -77 70 0 18 6 36 13 40 14 10 -134 54 -258 77 -109 20 -289 30 -365 20
-33 -5 -51 -10 -40 -13 135 -30 389 -149 505 -236 341 -257 556 -596 644
-1013 25 -118 45 -377 27 -338 -5 11 -10 16 -10 10 -1 -5 -5 -4 -10 3 -5 8
-11 -27 -15 -88 -14 -198 -61 -394 -126 -525 -39 -77 -49 -90 -70 -90 -21 0
-25 4 -23 25 2 21 -1 19 -18 -13 -11 -22 -19 -40 -17 -42 10 -10 257 65 493
150 444 159 667 220 927 253 82 11 151 21 153 24 3 2 0 42 -5 89 -5 46 -14
140 -20 209 -32 375 -40 480 -42 530 l-3 54 -45 11 c-54 13 -65 32 -75 122 -9
87 5 108 83 123 85 17 88 20 68 69 -21 54 -20 93 4 140 37 73 121 125 193 119
40 -2 42 -1 48 31 11 54 59 113 119 145 74 40 156 41 229 4 l50 -27 0 72 c-1
76 8 111 42 159 43 60 151 91 225 66 40 -14 41 -14 80 19 21 18 63 40 92 49
52 15 79 13 160 -11 18 -6 22 -3 22 13 0 68 84 170 158 191 54 15 136 6 184
-21z m-2798 -938 c61 -74 120 -169 111 -179 -4 -3 -61 -6 -127 -6 l-120 0 -15
50 c-8 28 -23 75 -34 106 -10 31 -19 68 -19 82 0 23 5 26 48 32 26 4 52 8 57
9 14 5 38 -18 99 -94z m4176 -772 c-37 -319 -132 -904 -140 -863 -4 20 -8 26
-13 18 -6 -10 -15 -9 -40 4 -18 9 -38 16 -45 14 -8 -1 -21 6 -30 16 -9 10 -26
20 -37 21 -11 2 -26 9 -32 14 -10 8 -13 6 -13 -7 0 -10 -2 -16 -5 -14 -2 3 11
158 30 345 18 186 37 373 40 415 l6 75 142 35 c78 20 144 34 146 33 2 -2 -2
-49 -9 -106z m-3268 -105 c41 -37 7 -113 -51 -113 -60 0 -90 82 -44 118 24 17
73 15 95 -5z m-415 -275 c-3 -7 -5 -2 -5 12 0 14 2 19 5 13 2 -7 2 -19 0 -25z
m-3570 -30 c-3 -7 -5 -2 -5 12 0 14 2 19 5 13 2 -7 2 -19 0 -25z m4120 -174
c-3 -3 -12 -4 -19 -1 -8 3 -5 6 6 6 11 1 17 -2 13 -5z m-3072 -172 c-6 -4 -25
-21 -44 -37 -24 -22 -30 -24 -21 -9 7 12 25 28 39 37 27 17 42 22 26 9z m6529
-229 c8 -20 -19 -44 -40 -36 -14 5 -19 35 -7 46 12 13 41 7 47 -10z m-6635
-263 c54 -120 182 -214 308 -227 49 -5 53 -7 32 -15 -15 -6 -48 -6 -91 2 -148
26 -283 163 -295 298 -4 52 -6 55 46 -58z m318 -416 c-3 -3 -12 -4 -19 -1 -8
3 -5 6 6 6 11 1 17 -2 13 -5z m5560 -436 c-3 -8 -6 -5 -6 6 -1 11 2 17 5 13 3
-3 4 -12 1 -19z m-2456 -238 c12 0 19 -7 19 -20 0 -16 -7 -20 -35 -20 -31 0
-35 3 -35 26 0 20 4 25 16 20 9 -3 24 -6 35 -6z"/>
<path d="M7045 5208 c4 -33 1 -73 -8 -105 l-14 -53 36 0 c75 -1 125 -17 151
-49 20 -23 31 -29 48 -24 19 4 22 12 20 36 -3 27 -8 31 -53 43 -27 6 -51 13
-52 13 -2 1 -7 1 -12 1 -5 0 -7 9 -4 19 3 11 -5 46 -16 78 -12 33 -21 67 -21
76 0 13 -9 17 -41 17 l-40 0 6 -52z"/>
<path d="M2934 5220 c-71 -15 -113 -38 -174 -96 -78 -75 -110 -142 -117 -246
-4 -48 -2 -78 4 -78 5 0 15 -19 22 -42 66 -223 265 -341 469 -279 87 26 154
84 203 173 33 61 34 67 34 173 0 104 -2 114 -33 177 -76 156 -252 250 -408
218z"/>
<path d="M3514 5169 c-4 -7 -3 -9 4 -5 5 3 12 2 14 -3 1 -5 35 -32 73 -62 46
-35 65 -45 54 -29 -24 37 -136 113 -145 99z"/>
<path d="M6436 5089 c-10 -6 -38 -9 -63 -6 -24 2 -43 2 -41 -2 2 -3 10 -23 18
-43 14 -39 20 -41 74 -29 26 5 30 11 33 49 2 23 3 42 1 42 -2 0 -11 -5 -22
-11z"/>
<path d="M3690 5044 c0 -13 108 -119 114 -113 3 3 -21 32 -54 64 -33 33 -60
55 -60 49z"/>
<path d="M2067 4919 c-113 -18 -214 -97 -265 -207 -76 -164 23 -419 195 -503
69 -34 188 -38 264 -10 79 30 141 88 181 169 31 62 33 73 33 172 0 97 -2 110
-31 170 -71 150 -223 234 -377 209z"/>
<path d="M8065 4908 c-16 -5 -74 -10 -128 -12 -73 -2 -102 -7 -114 -18 -14
-15 -11 -19 35 -42 l51 -26 33 20 c36 22 116 27 149 10 17 -10 19 -7 19 29 0
47 -5 51 -45 39z"/>
<path d="M3850 4873 c0 -4 10 -19 21 -33 11 -14 42 -58 70 -97 53 -77 76 -99
38 -35 -58 96 -129 188 -129 165z"/>
<path d="M6716 4794 c8 -103 -6 -187 -32 -198 -11 -5 -26 -22 -31 -37 -10 -25
-8 -27 26 -37 20 -6 63 -13 96 -16 33 -3 49 -3 35 0 -14 3 -29 9 -33 14 -18
17 -26 85 -15 130 14 58 16 200 3 200 -5 0 -20 3 -32 6 -21 6 -22 4 -17 -62z"/>
<path d="M5846 4710 c-21 -9 -34 -20 -30 -23 16 -8 374 -71 379 -65 3 2 -5 24
-17 47 -22 40 -24 42 -58 34 -58 -13 -162 -8 -197 10 -18 10 -33 17 -35 16 -2
0 -20 -9 -42 -19z"/>
<path d="M7361 4633 c-27 -71 -68 -143 -82 -143 -5 0 -27 -11 -49 -25 -22 -14
-48 -25 -57 -26 -10 0 -5 -5 12 -10 46 -15 328 -69 333 -64 3 2 -7 18 -21 34
-48 58 -41 156 14 194 24 18 14 29 -56 62 -33 16 -63 31 -66 32 -3 2 -16 -22
-28 -54z"/>
<path d="M8216 4643 c-12 -87 -72 -159 -148 -178 -16 -4 -35 -21 -47 -40 -13
-22 -30 -35 -51 -40 -17 -4 -29 -9 -27 -11 6 -6 123 18 364 76 214 51 257 65
200 67 -49 1 -119 39 -187 99 -91 81 -96 82 -104 27z"/>
<path d="M4033 4583 c46 -91 116 -297 133 -392 36 -202 27 -468 -21 -653 -34
-128 -115 -329 -115 -285 0 20 -11 22 -28 5 -10 -10 -15 -10 -22 2 -9 13 -10
13 -10 0 0 -9 -3 -11 -8 -5 -4 6 -37 11 -74 13 l-68 2 -2 -47 c-1 -36 -3 -30
-7 28 -12 137 -97 266 -215 326 -74 38 -197 44 -279 13 -82 -31 -166 -114
-197 -195 -23 -62 -41 -203 -23 -192 5 3 15 -20 22 -52 l13 -58 75 -7 c211
-17 444 -1 668 47 l150 32 32 60 c43 80 97 248 125 387 32 159 32 425 -1 578
-36 171 -134 432 -170 455 -7 4 3 -24 22 -62z"/>
<path d="M8684 4580 c-11 -12 -38 -28 -60 -35 l-39 -14 35 0 c19 0 76 10 125
23 l90 23 -45 6 c-25 3 -54 8 -65 12 -13 4 -27 -1 -41 -15z"/>
<path d="M3553 4526 c-81 -26 -169 -100 -209 -177 -42 -82 -57 -211 -29 -259
8 -14 17 -32 21 -40 59 -137 115 -204 205 -244 85 -39 159 -44 247 -17 238 72
319 381 157 600 -89 119 -259 178 -392 137z"/>
<path d="M6858 4493 c7 -3 16 -2 19 1 4 3 -2 6 -13 5 -11 0 -14 -3 -6 -6z"/>
<path d="M6908 4483 c6 -2 18 -2 25 0 6 3 1 5 -13 5 -14 0 -19 -2 -12 -5z"/>
<path d="M6975 4481 c-27 -6 -25 -8 29 -19 93 -19 121 -15 56 8 -30 11 -55 19
-55 18 0 0 -13 -3 -30 -7z"/>
<path d="M5773 4368 c4 -46 11 -150 17 -233 26 -377 31 -443 36 -482 l5 -41
87 -12 c48 -7 123 -23 167 -35 44 -13 81 -22 82 -21 2 1 -4 133 -12 292 -8
159 -15 346 -15 416 0 124 -1 128 -22 133 -38 9 -332 65 -342 65 -5 0 -6 -36
-3 -82z"/>
<path d="M2715 4379 c-187 -27 -343 -191 -375 -394 -33 -206 85 -427 279 -523
73 -36 78 -37 186 -37 105 0 114 2 178 34 286 140 350 551 122 786 -107 109
-242 156 -390 134z m162 -325 c19 -9 45 -33 59 -53 27 -40 33 -105 10 -114
-37 -14 -199 102 -194 138 3 21 41 45 71 45 11 0 35 -7 54 -16z"/>
<path d="M7562 4361 c36 -24 176 -35 256 -22 81 14 146 35 82 27 -19 -3 -59
-10 -89 -17 -44 -10 -73 -10 -145 0 -50 7 -97 15 -106 18 -11 3 -11 2 2 -6z"/>
<path d="M7270 4114 c-1 -56 -2 -74 -30 -439 -12 -148 -29 -386 -38 -527 l-18
-258 147 0 c195 0 269 8 269 29 0 9 -3 12 -8 6 -4 -5 -17 -11 -29 -13 -21 -3
-23 1 -23 36 0 81 81 954 100 1077 5 33 8 60 7 61 -1 1 -76 16 -167 34 -91 17
-175 34 -187 37 -21 5 -23 2 -23 -43z"/>
<path d="M1313 3830 c0 -25 2 -35 4 -22 2 12 2 32 0 45 -2 12 -4 2 -4 -23z"/>
<path d="M5215 3424 c-5 -2 -36 -10 -68 -19 l-57 -17 6 -51 c9 -79 5 -76 78
-59 l66 16 -1 45 c-1 56 -11 89 -24 85z"/>
<path d="M2235 3394 c-9 -14 -15 -27 -13 -30 2 -2 12 10 22 26 21 37 15 40 -9
4z"/>
<path d="M5236 2497 l-58 -22 6 -59 c3 -33 8 -61 10 -64 3 -2 35 6 71 18 l67
22 -6 37 c-3 20 -6 48 -6 64 0 32 -7 33 -84 4z"/>
<path d="M8270 1868 c0 -9 5 -20 11 -23 17 -11 18 -2 3 19 -12 17 -14 17 -14
4z"/>
</g>
</svg>
